<svg xmlns="http://www.w3.org/2000/svg" xmlns:xlink="http://www.w3.org/1999/xlink" xmlns:inkscape="http://www.inkscape.org/namespaces/inkscape" version="1.1" width="129" height="48" viewBox="0 0 129 48">
<defs>
<path id="font_1_2" d="M.30299378 .3244629H.3999939C.47499085 .3244629 .48298646 .30848695 .48298646 .27954103 .48298646 .2725525 .48298646 .26057435 .47599793 .2306366 .47399903 .22564698 .47299195 .22164917 .47299195 .21965027 .47299195 .21166992 .47898866 .20767212 .4850006 .20767212 .49499513 .20767212 .49499513 .21066284 .5 .2286377L.5549927 .44551087C.55799868 .45651246 .55799868 .45851136 .55799868 .46151734 .55799868 .46351625 .55599978 .47251893 .54599 .47251893 .5359955 .47251893 .5349884 .46751405 .5309906 .45150758 .5099945 .37347413 .4869995 .35546876 .4019928 .35546876H.31098939L.375 .6095886C.38398744 .64460757 .3849945 .64860537 .42900086 .64860537H.5609894C.6839905 .64860537 .70700076 .6156006 .70700076 .53855898 .70700076 .5155487 .70700076 .51153567 .70399478 .4845276 .70199587 .4715271 .70199587 .46951295 .70199587 .46652223 .70199587 .46151734 .7049866 .45451356 .71398928 .45451356 .72499087 .45451356 .7259979 .46051026 .7279968 .4795227L.7480011 .65260317C.7509918 .6796112 .74598696 .6796112 .72099307 .6796112H.23098755C.21099854 .6796112 .20098877 .6796112 .20098877 .65960696 .20098877 .64860537 .20999146 .64860537 .22898865 .64860537 .2659912 .64860537 .2939911 .64860537 .2939911 .6306 .2939911 .6266022 .2939911 .6246033 .2889862 .60658267L.15699768 .07791138C.14698792 .038970949 .14498902 .0309906 .06599426 .0309906 .04899597 .0309906 .037994386 .0309906 .037994386 .011993408 .037994386 0 .049987794 0 .052993776 0 .08198547 0 .1559906 .0029907227 .18499756 .0029907227 .21798706 .0029907227 .30099488 0 .33399964 0 .34298707 0 .35499574 0 .35499574 .018997193 .35499574 .026992798 .34899903 .0289917 .34899903 .02999878 .34599305 .0309906 .34399415 .0309906 .32099916 .0309906 .29899598 .0309906 .2939911 .0309906 .2689972 .032989503 .23999024 .035980226 .23699951 .039978029 .23699951 .052947999 .23699951 .0549469 .23699951 .060943605 .24099732 .075912479L.30299378 .3244629Z"/>
<path id="font_2_3" d="M.25498963-.25V-.21000672H.1579895V.70999148H.25498963V.75H.117996219V-.25H.25498963Z"/>
<path id="font_1_3" d="M.33399964 .30233766C.33999635 .32835389 .36299134 .42037965 .43299867 .42037965 .43798829 .42037965 .46199037 .42037965 .48298646 .40734864 .45498658 .402359 .43499757 .37734986 .43499757 .35334779 .43499757 .33735658 .44599916 .31835938 .47299195 .31835938 .49499513 .31835938 .5269928 .3363495 .5269928 .37635804 .5269928 .42837525 .46798707 .4423828 .43399049 .4423828 .37599183 .4423828 .34098817 .38935853 .32899476 .36634828 .3039856 .43237306 .25 .4423828 .22099304 .4423828 .116989139 .4423828 .05999756 .3133545 .05999756 .28834535 .05999756 .27833558 .069992069 .27833558 .07199097 .27833558 .07998657 .27833558 .08299255 .28033448 .084991458 .28933717 .11898804 .39535523 .18499756 .42037965 .21899414 .42037965 .23799134 .42037965 .272995 .4113617 .272995 .35334779 .272995 .32235719 .2559967 .25532533 .21899414 .11528015 .20298767 .053268434 .16799927 .011245728 .12399292 .011245728 .117996219 .011245728 .09498596 .011245728 .07398987 .024276734 .09899902 .029266358 .12098694 .05027771 .12098694 .07827759 .12098694 .105270389 .09899902 .11328125 .083999637 .11328125 .053985597 .11328125 .0289917 .08728027 .0289917 .055267335 .0289917 .009246826 .07899475-.0107421879 .12298584-.0107421879 .18899536-.0107421879 .22499085 .059280397 .22799683 .0652771 .23999024 .028274537 .27598573-.0107421879 .33599855-.0107421879 .43899537-.0107421879 .49598695 .118270877 .49598695 .14328003 .49598695 .1532898 .4869995 .1532898 .48399354 .1532898 .47499085 .1532898 .47299195 .14929199 .47099305 .14228821 .43798829 .03527832 .36999513 .011245728 .33799745 .011245728 .29899598 .011245728 .2829895 .043273927 .2829895 .07727051 .2829895 .09927368 .2889862 .121276859 .2999878 .16529846L.33399964 .30233766Z"/>
<path id="font_2_4" d="M.15899658 .75H.021987915V.70999148H.11898804V-.21000672H.021987915V-.25H.15899658V.75Z"/>
<path id="font_2_1" d="M.33099366-.2400055C.33099366-.23701477 .33099366-.23500061 .31399537-.21800232 .18899536-.0920105 .15699768 .09700012 .15699768 .25 .15699768 .42399598 .19499207 .59799197 .31799317 .72299197 .33099366 .73498538 .33099366 .7369995 .33099366 .73999026 .33099366 .746994 .32699586 .75 .32099916 .75 .31098939 .75 .22099304 .6819916 .1619873 .5549927 .11099243 .44499208 .09899902 .33399964 .09899902 .25 .09899902 .17199707 .10998535 .050994874 .16499329-.06201172 .22499085-.18501282 .31098939-.25 .32099916-.25 .32699586-.25 .33099366-.24700928 .33099366-.2400055Z"/>
<path id="font_1_1" d="M.47698976 .23631287C.47698976 .39337159 .38398744 .4423828 .30999757 .4423828 .17298889 .4423828 .040985109 .29933167 .040985109 .15829468 .040985109 .06526184 .100997928-.0107421879 .20298767-.0107421879 .2659912-.0107421879 .33799745 .012252808 .4139862 .073272708 .4269867 .020248414 .45999146-.0107421879 .5049896-.0107421879 .55799868-.0107421879 .58898928 .044265748 .58898928 .060272218 .58898928 .06726074 .58299258 .07026672 .57699587 .07026672 .56999209 .07026672 .5669861 .06726074 .56399539 .060272218 .54599 .011245728 .5099945 .011245728 .5079956 .011245728 .47698976 .011245728 .47698976 .089279178 .47698976 .11328125 .47698976 .1342926 .47698976 .1362915 .4869995 .14828491 .58099368 .2663269 .60198977 .38235475 .60198977 .38336183 .60198977 .38536073 .6009979 .39337159 .58999636 .39337159 .5799866 .39337159 .5799866 .3903656 .57499697 .37236024 .5569916 .30934144 .5239868 .23332215 .47698976 .17430115V.23631287M.4099884 .09927368C.32199098 .022247315 .24499512 .011245728 .20498657 .011245728 .14498902 .011245728 .114990238 .056259157 .114990238 .120285037 .114990238 .16929627 .14099121 .2773285 .17298889 .32833863 .21998596 .4013672 .27398683 .42037965 .30899049 .42037965 .4079895 .42037965 .4079895 .28933717 .4079895 .21130371 .4079895 .17430115 .4079895 .11628723 .4099884 .09927368Z"/>
<path id="font_2_2" d="M.2889862 .25C.2889862 .32798768 .27799989 .44898988 .22299195 .56199648 .16299439 .68499758 .07699585 .75 .066986087 .75 .06098938 .75 .056991579 .74598696 .056991579 .73999026 .056991579 .7369995 .056991579 .73498538 .07598877 .71699526 .17399597 .6179962 .23098755 .45899964 .23098755 .25 .23098755 .07899475 .19400025-.09700012 .069992069-.2230072 .056991579-.23500061 .056991579-.23701477 .056991579-.2400055 .056991579-.2460022 .06098938-.25 .066986087-.25 .07699585-.25 .16699219-.18200684 .22599793-.055007936 .2769928 .054992677 .2889862 .16600037 .2889862 .25Z"/>
<path id="font_3_1" d="M.56900027 .6553345C.56900027 .68933108 .5629883 .69433596 .5289917 .69433596H.116989139C.099990848 .69433596 .07699585 .69433596 .07699585 .6693268 .07699585 .6453247 .100997928 .6453247 .116989139 .6453247H.519989V.37223817H.1349945C.117996219 .37223817 .09298706 .37223817 .09298706 .347229 .09298706 .3232422 .114990238 .3232422 .12998963 .3232422H.519989V.04899597H.116989139C.099990848 .04899597 .07699585 .04899597 .07699585 .023986817 .07699585 0 .100997928 0 .116989139 0H.5289917C.5629883 0 .56900027 .004989624 .56900027 .038986207V.6553345Z"/>
<path id="font_4_1" d="M.21899414 .65885928C.21899414 .69485476 .18798828 .7138672 .1619873 .7138672 .1329956 .7138672 .10398865 .69285586 .10398865 .65885928L.14299011 .21783448C.14498902 .1958313 .147995 .1938324 .1619873 .1938324 .1749878 .1938324 .17799378 .1958313 .17999268 .21684265L.21899414 .65885928M.21899414 .057998659C.21899414 .08898926 .19299317 .114990238 .1619873 .114990238 .1269989 .114990238 .10398865 .08699036 .10398865 .057998659 .10398865 .022994996 .13198853 0 .16099549 0 .19400025 0 .21899414 .024993897 .21899414 .057998659Z"/>
<path id="font_5_1" d="M.31599427-.008773804C.32699586-.009765625 .33898927-.009765625 .34999085-.009765625 .5299988-.009765625 .69499209 .13726807 .69499209 .29534913 .69499209 .3843994 .6419983 .44140626 .56399539 .44140626 .42599488 .44140626 .35299684 .26533509 .32499696 .19029236 .31199647 .15327454 .2899933 .083236698 .28399659 .06422424 .17399597 .07923889 .10398865 .12927246 .10398865 .2033081 .10398865 .20429993 .10998535 .31636048 .19099427 .4064026 .19799805 .4133911 .19898987 .41540528 .19898987 .41940309 .19898987 .43139649 .18598938 .43139649 .18299866 .43139649 .17399597 .43139649 .16999817 .43139649 .15098572 .4093933 .09498596 .3403778 .068984989 .23632813 .068984989 .19329834 .068984989 .10424805 .13398743 .02722168 .2630005-.00077819827 .21299744-.15582276 .20698548-.17481995 .20698548-.18382263 .20698548-.21083069 .22999573-.21582031 .24099732-.21582031 .2519989-.21582031 .27198792-.20883179 .27999879-.1938324 .2869873-.17881775 .29599-.12780762 .31599427-.008773804M.32899476 .05923462C.34899903 .17428589 .35699464 .21931458 .40499879 .28434754 .44999696 .3453827 .5029907 .37339784 .5529938 .37339784 .621994 .37339784 .6589966 .32737733 .6589966 .27534486 .6589966 .17428589 .5329895 .05822754 .36099244 .05822754 .35198976 .05822754 .33799745 .05822754 .32899476 .05923462Z"/>
</defs>
<use data-text="F" xlink:href="#font_1_2" transform="matrix(9.963496,0,0,-9.962899,1.1898499,8.721903)"/>
<use data-text="[" xlink:href="#font_2_3" transform="matrix(9.963496,0,0,-9.962899,8.981552,8.721903)"/>
<use data-text="x" xlink:href="#font_1_3" transform="matrix(9.963496,0,0,-9.962899,11.748795,8.721903)"/>
<use data-text="]" xlink:href="#font_2_4" transform="matrix(9.963496,0,0,-9.962899,17.443314,8.721903)"/>
<use data-text="F" xlink:href="#font_1_2" transform="matrix(9.963496,0,0,-9.962899,106.44731,8.721903)"/>
<use data-text="(" xlink:href="#font_2_1" transform="matrix(9.963496,0,0,-9.962899,114.239,8.721903)"/>
<use data-text="&#x03b1;" xlink:href="#font_1_1" transform="matrix(9.963496,0,0,-9.962899,118.11336,8.721903)"/>
<use data-text=")" xlink:href="#font_2_2" transform="matrix(9.963496,0,0,-9.962899,124.52391,8.721903)"/>
<use data-text="F" xlink:href="#font_1_2" transform="matrix(9.963496,0,0,-9.962899,52.711488,43.91796)"/>
<use data-text="(" xlink:href="#font_2_1" transform="matrix(9.963496,0,0,-9.962899,60.50319,43.91796)"/>
<use data-text="x" xlink:href="#font_1_3" transform="matrix(9.963496,0,0,-9.962899,64.37753,43.91796)"/>
<use data-text=")" xlink:href="#font_2_2" transform="matrix(9.963496,0,0,-9.962899,70.07205,43.91796)"/>
<path transform="matrix(1.00009,0,0,-1.00003,64.79556,23.829358)" stroke-width=".39848" stroke-linecap="butt" stroke-miterlimit="10" stroke-linejoin="miter" fill="none" stroke="#000000" d="M-40.8884 8.76724-14.99873-8.54578"/>
<path transform="matrix(.8312948,.5558667,.55590006,-.83124497,49.961099,32.48612)" stroke-width=".39848" stroke-linecap="round" stroke-linejoin="round" fill="none" stroke="#000000" d="M-2.07213 2.39091C-1.69356 .95633-.84995 .27893 0 0-.84995-.27893-1.69356-.95633-2.07213-2.39091"/>
<path transform="matrix(1.00009,0,0,-1.00003,64.79556,23.829358)" stroke-width=".39848" stroke-linecap="butt" stroke-miterlimit="10" stroke-linejoin="miter" fill="none" stroke="#000000" d="M-38.65233 17.59776H36.75838"/>
<path transform="matrix(-1.00009,-0,0,-1.00003,26.139756,6.2310698)" stroke-width=".39848" stroke-linecap="round" stroke-miterlimit="10" stroke-linejoin="miter" fill="none" stroke="#000000" d="M0 1.95256C.68224 1.95256 1.2353 1.51546 1.2353 .97627 1.2353 .43709 .68224 0 0 0"/>
<path transform="matrix(1.00009,0,0,-1.00003,101.7565,6.2310698)" stroke-width=".39848" stroke-linecap="round" stroke-linejoin="round" fill="none" stroke="#000000" d="M-2.07213 2.39091C-1.69356 .95633-.84995 .27893 0 0-.84995-.27893-1.69356-.95633-2.07213-2.39091"/>
<path transform="matrix(1.00009,0,0,-1.00003,64.79556,23.829358)" stroke-width=".39848" stroke-linecap="butt" stroke-dasharray=".39848,1.99255" stroke-miterlimit="10" stroke-linejoin="miter" fill="none" stroke="#000000" d="M12.10371-8.76724 38.72061 8.54996"/>
<path transform="matrix(.83827546,-.5453464,-.54537907,-.8382251,103.68666,15.170517)" stroke-width=".39848" stroke-linecap="round" stroke-linejoin="round" fill="none" stroke="#000000" d="M-2.07213 2.39091C-1.69356 .95633-.84995 .27893 0 0-.84995-.27893-1.69356-.95633-2.07213-2.39091"/>
<use data-text="&#x2203;" xlink:href="#font_3_1" transform="matrix(6.9744279,0,0,-6.9740097,92.723079,31.018574)"/>
<use data-text="!" xlink:href="#font_4_1" transform="matrix(6.9744279,0,0,-6.9740097,97.23449,31.018574)"/>
<use data-text="&#x03c6;" xlink:href="#font_5_1" transform="matrix(6.9744279,0,0,-6.9740097,99.48969,31.018574)"/>
</svg>
